<?xml version="1.0" encoding="UTF-8" standalone="no"?>
<svg xmlns="http://www.w3.org/2000/svg" width="83" height="85">
  <path fill="#2f2f2f" d="M26.896199 72.34144c-1.86791.267806-4.296199.255616-5.396199-.02709-1.1-.282706-3.020068-1.454638-4.266818-2.604294-1.24675-1.149656-2.7521-3.710012-3.345223-5.689679-.771385-2.574654-.771138-4.740502.000869-7.607516.593601-2.204465 2.466-5.336686 4.160886-6.96049C20.701535 46.911765 21.900688 46.5 26.647692 46.5c4.966726 0 5.807107.325396 8.434337 3.265777C37.406489 52.367299 38 53.963747 38 57.614647c0 2.520702-.713769 6.087251-1.586153 7.925663-.872384 1.838413-2.606594 4.011188-3.853801 4.828389-1.247207.817202-3.795938 1.704935-5.663847 1.972741zM23.432481 66c1.167379 0 3.122634-.700517 4.345013-1.556704C29.297344 63.378752 30 61.861208 30 59.643296 30 57.859483 29.46 55.86 28.8 55.2c-.66-.66-2.537067-1.2-4.171259-1.2-1.634193 0-3.794193.744744-4.8 1.654988C18.822933 56.565231 18 58.442297 18 59.826247c0 1.383949.744744 3.339205 1.654988 4.345012C20.565231 65.177067 22.265103 66 23.432481 66zM58 72.420405c-2.071886.33645-4.7997-.010598-6.685285-.850539-1.751907-.780394-3.889407-2.780518-4.75-4.444722-.860593-1.664203-1.563033-4.960671-1.560977-7.325484.002172-2.498522.821452-5.640756 1.955778-7.501111 1.073621-1.760799 3.299592-3.898299 4.946602-4.75C53.553127 46.696847 56.316096 46 58.046048 46s4.417035.751193 5.971296 1.669317c1.55426.918124 3.423692 2.786582 4.154292 4.152129.7306 1.365548 1.28687 4.326855 1.236155 6.580684-.050715 2.253828-.84758 5.556132-1.77081 7.338452-.923231 1.782321-2.681737 3.886531-3.907791 4.676024-1.226055.789492-3.80419 1.691202-5.72919 2.003799zM55.185549 66c1.202052 0 3.227052-.978441 4.5-2.174314C60.958497 62.629813 62 60.929941 62 60.048192c0-.881749-.700517-2.603307-1.556704-3.825686C59.355729 54.669787 57.86599 54 55.5 54s-3.855729.669787-4.943296 2.222506C49.700517 57.444885 49 59.244885 49 60.222506 49 61.200128 49.9 62.9 51 64s2.983497 2 4.185549 2zM45.44966 39c-2.81726 0-4.425118-.775458-7.04966-3.4-3.020837-3.020837-3.399583-3.996624-3.396262-8.75.002516-3.600632.663645-6.432377 2.021897-8.660176 1.119202-1.835712 3.639429-3.987586 5.657917-4.830964 2.329649-.973389 4.895535-1.285203 7.128567-.866284 1.918844.359977 4.771099 1.936796 6.338344 3.504041 2.42091 2.420909 2.848975 3.650813 2.845799 8.17646-.002469 3.517858-.666666 6.414161-1.955778 8.528374-1.073621 1.760799-3.299592 3.898299-4.946602 4.75C50.446873 38.303153 47.456973 39 45.44966 39zm-.544672-7.015313c1.427256-.008422 3.090145-.345922 3.695308-.75.605163-.404078 1.633495-1.747187 2.285184-2.984687.913183-1.734057.913183-2.765943 0-4.5-.651689-1.2375-1.680021-2.580609-2.285184-2.984687-.605163-.404078-2.112796-.741578-3.350296-.75C44.0125 20.006891 42.1 20.9 41 22s-2 2.977067-2 4.171259c0 1.194193.744744 2.994193 1.654988 4 .910243 1.005808 2.822743 1.82185 4.25 1.813428z"/>
  <path d="M26.5 72.374681c-1.66444.3168-4.413255-.049068-6.174523-.82183-1.745987-.766057-3.958487-2.589313-4.916666-4.051679-.95818-1.462367-1.739821-4.535871-1.736981-6.83001.002839-2.294139.774686-5.653562 1.715215-7.465385.940529-1.811822 3.150705-4.17264 4.911504-5.246261 1.760798-1.073622 4.228404-1.953722 5.48357-1.955778 1.255165-.002056 3.812777.635812 5.683582 1.417484 1.891158.790177 4.096979 2.766201 4.967881 4.45034.86153 1.666015 1.564736 4.738965 1.56268 6.828778-.002056 2.089813-.880573 5.23771-1.952259 6.995326-1.071687 1.757616-2.982505 3.850944-4.246262 4.651839C30.533983 71.1484 28.15 72.060629 26.5 72.374681zM23.742688 66c1.429907 0 3.422764-.744744 4.428571-1.654988C29.204447 63.40999 30 61.321858 30 59.545012 30 57.815256 29.46 55.86 28.8 55.2c-.66-.66-2.894167-1.2-4.964816-1.2-2.698708 0-4.057957.547737-4.8 1.934259C18.465833 56.998101 18 58.990958 18 60.36283c0 1.371872.707143 3.201456 1.571429 4.065741C20.435714 65.292857 22.312781 66 23.742688 66zm32.487076 6.863818c-.40137-.0749-1.720639-.328364-2.931709-.563254-1.21107-.234889-3.57357-1.989266-5.25-3.898614C45.733225 65.765505 45 63.964611 45 60.915544c0-2.208175.632244-5.230017 1.404986-6.715204.772742-1.485187 2.508214-3.73066 3.856604-4.989941 1.34839-1.25928 4.021492-2.544356 5.940227-2.855723 2.251059-.365297 4.604397.010873 6.633978 1.06041 1.729953.894594 3.899608 2.777647 4.821454 4.184562.921846 1.406916 1.676084 4.485583 1.676084 6.841484 0 2.65951-.828707 5.624332-2.185868 7.820265-1.365164 2.208881-3.688095 4.137881-6.186903 5.137706-2.200569.880494-4.329428 1.539615-4.730798 1.464715zM55.154988 66C56.719744 66 58.9 65.1 60 64c1.1-1.1 2-2.929584 2-4.065741 0-1.136158-.465833-2.936158-1.035184-4C60.232736 54.566355 58.864982 54 56.293557 54c-1.999842 0-4.459009.744744-5.464816 1.654988C49.822933 56.565231 49 58.442297 49 59.826247c0 1.383949.744744 3.339205 1.654988 4.345012C51.565231 65.177067 53.590231 66 55.154988 66zm-9.372869-27.003738c-1.255166-.002056-3.715899-.877976-5.468297-1.946489-1.752398-1.068513-3.71527-2.931368-4.361937-4.139677-.675403-1.262002-.98645-4.479746-.730912-7.561201.320504-3.864858 1.12047-6.096947 2.861937-7.985464 1.3294-1.441653 3.851606-3.23254 5.604904-3.979747 1.753298-.747207 4.453298-1.104442 6-.793855 1.546702.310588 3.507837 1.092434 4.358077 1.737438.850241.645003 2.312741 2.285361 3.25 3.645239C58.269907 19.385714 59 22.334163 59 24.854472c0 2.768217-.801169 5.705779-2.152468 7.892226-1.183857 1.915521-3.644403 4.106136-5.467881 4.868034-1.823478.761897-4.342367 1.383586-5.597532 1.38153zm-.49969-7.191905c3.329541-.243957 4.457875-.850095 5.685725-3.054357 1.375575-2.469458 1.375641-3.030542.00065-5.5-1.10425-1.983212-2.454784-2.83932-4.84354-3.070335-2.104121-.203488-4.007752.309-5.218804 1.404988C39.857907 22.53358 39 24.394814 39 25.720729c0 1.325915.478924 3.305631 1.064275 4.39937.848535 1.585502 1.906309 1.926919 5.218154 1.684258z"/>
</svg>